<?xml version="1.0" encoding="UTF-8"?>
<svg xmlns="http://www.w3.org/2000/svg" version="1.1" viewBox="0 0 1024 1024">
  <!-- Generator: Adobe Illustrator 29.8.2, SVG Export Plug-In . SVG Version: 2.1.1 Build 3)  -->
  <defs>
    <style>
      .st0, .st1 {
        fill: #002758;
      }

      .st2 {
        fill: #fff;
      }

      .st1 {
        font-family: MyriadPro-Regular, 'Myriad Pro';
        font-size: 16px;
      }

      .st3 {
        display: none;
      }
    </style>
  </defs>
  <g id="Layer_4">
    <g>
      <path class="st0" d="M467.2,271.5c-.3.5-8.7-5-9.8-5.2-.7-.5-5.9-8.5-6.2-9.2-2.1-6.1-1.3-15.1.8-20.8,2.7-7.3,9.4-11.9,17.4-10.8s8.2,3.4,9.5,4.2,4.1,4.2,6.2,3.8l-9-14.4c-.6-4.4-2.7-8.1-2-13.3,1.3-9.8,14.8-26.1,21.1-35.2s2.4-1,1.8-3.2l2.8,3.2c11.3,19.3,29,29.6,15,54.6-.4.6-3.3,3.7-3.7,4.3s-1.2,2.9-1.2,3.8c1.3.3,1.4-1.3,2.2-1.8,5.5-3.8,13-7.1,20.1-6.2s8.3,4.3,9.5,6.2,3.1,7.9,3.2,8.5c1.5,13.4-2.8,23.8-14.2,30.1s-3,1.2-3.8,1.2c-.5-1.4,1-.9,1-1v-8s-.8.1-.9-.1c-.2-.6-1-3.7-1.2-3.8s-1.2.1-1.6,0c-3.1-1.8-7.1-.9-10.2,1.2-4.9,3.2-5.9,11.1-5.1,16.5,1.3,9.3,15.2,24.3,24.3,27.3s28.3,3.4,34.4-7.1,1.8-7.4-.2-9.8-6-2.4-8.3-2-4,2.5-5,3-.4.9-.4,1c-1.4.8-.7-1.2-1.1-1.8s-1.6-1-1.7-1.3c-1-2.4-1.6-8.6-1.1-11.5s4.1-6.6,5.1-7.2c1.7-1,6.7-2.5,8.5-2.1s.3.8.7,1c.7.2,1.7-.2,2.3,0s3.9,3.7,4.4,3c1.1-2-1.5-4.7-1-6.6,2.3-8.6,8.4-19.5,18.3-21.3s3,.7,3.8,1.8,1.4.9,1.7,1.3c2.5,4.1,5.8,14,5.1,18.5s-3.4,8.1-4.2,9.2-2.1.9-1.8,2.2c1,.8,4-1.9,4.4-2,3.6-.6,9.7.6,11.5,4.1s0,1.7.2,2.5.9.2,1,1.1c.6,4.7-.6,10.2-3.2,14.1s-4.5,5-4.8,5.2c-1.6.9-.8-2.6-1-3.6s-1.5-1.1-1.8-1.5,0-1.6-.2-1.8-1.2.1-1.6,0-.5-.9-.8-.9c-1.1-.2-5.2-.2-6.3,0-1.6.3-6,7.5-4.4,9.6,2.4,5.3,5.5,10.2,11.8,12.5s7.1,2.4,11.5,1.9c10.6-1.2,25.4-13.7,26.7-24.7s.2-6.1,0-7.5-3.3-3.7-3.8-3.8c-2.4-.4-5,.1-7.1,1.2s-1.1,2.6-3.2,1.8v-14c0-.2.7-2.8,1-3.6s4.5-5.9,5.1-6.2,1.7,0,2.5-.2.2-.9,1.1-1c4.8-.6,12,2.3,15.1,6.2s.4,3.2,2.2,2.8c.2-1.3-.3-3.1,0-4.3s1.6-4.2,1.9-4.9c2.2-5.8,4.3-6.8,10-9s11.2-3.1,16.9-3.9,3.6.2,5.3,0l-10.8,12.2c-16.4,24.6-30.1,53.7-40.1,80.1s-.8,4.3-1,4.6-3.1,0-3.6,0-4.4-1.6-6-2c-80.6-22.3-170.3-22.3-250.7,0-.6.2-4.2,1.8-4.7,2-2.7.7-1.2-1.2-1.7-2.6s-1.6-4-2-5c-11.1-28.2-27.3-61.7-46.1-85.1s-7.6-5.3,0-4.2,21.8,1.9,27,8.2,1.7,3.9,2.2,5.5,1,.3,1,.3v8c3.1.5,1.4-.8,2.2-1.9s3.6-3.7,3.8-3.8c2.7-1.8,9.2-3.8,12.3-3.4s5.2,2.8,5.5,3.2c1.9,2.4,1.6,3.9,2.2,6.5s1,.3,1,.3v14c0,0,1.5-.4,1,1-2.1.8-2.3-1.4-3.2-1.8-2.4-1.2-5.4-1.6-8.1-1.2s-3.7,3.3-3.8,3.8c-.2,1.6-.2,6.9,0,8.5s1.7,3.5,1.9,3.9c6.8,18,33.9,28.5,45.3,10s2.6-2.9,2.8-4.5c1.7-10.8-13.5-13.9-15-2.6-.9.9-6.3-4.3-6.8-5.2-3-4.7-3.1-13,0-17.6s7.9-3.8,11.4-3.1,1.1,2.4,2.4,2c.8-2.1-1.3-2.2-1.8-3.2-2-3.7-3.8-10.2-3.2-14.5s4.8-11.1,6.1-13.2,2.1-2.1,2.2-2.1c2.7-.6,2.5.8,3,1,11,3.2,19.3,11.6,17.7,24.3,0,.7-1.9,1.3-1,2.7s4.1-2.9,4.4-3c1-.4,5.7-1.3,6.9-1.1s4.9,1.8,5.5,2.2,4,3.9,4.1,4.2c.2.5-.1,1.6,0,2.3s.9.2,1,1.1.2,4.4,0,5.6-2.7,6.8-3.2,7.5c-1.9,2.8-1.7,0-3-.6-2.8-1.6-6.6-2.9-9.7-2s-2.9,2.8-3,3c-.4.9,0,1.8-.1,2.5s-.9.1-1,.6c-.2,1.2.9.5,1,1.1.2,1-.3,2.4,0,3.3,1.1,3.4,5.6,6.3,8.8,7.5,10,4,16.4,3.8,26.3,0,13.3-5.1,28.9-23.8,22.6-38s-1.4-.9-1.7-1.3,0-1.6-.2-1.8-1.3.2-1.8-.2c-1.6-1.2-2.6-3.5-5.3-3.9-3.9-.5-6.7.4-8,3.9s-.9,0-.9.1c0,1.5.2,9.6,0,10Z"/>
      <g>
        <path class="st0" d="M508.1,330.6c40.9,1.5,81.9,7.6,117.4,18.8.7.2,1.8,0,2.6,0,.5,1.4-.8.8-1,1.3s.2,1.6,0,2.3c-1.4,4.4-3.7,9.1-5,13.7s-1.9,11.6-4,15,.7,2.4-3.7,1.6-6.5-2.4-8.7-3c-69.6-17.1-156.5-16.1-225.1,2-.4.1-.3.9-.7,1-5.3,1-3-.9-3.7-3.6-2.2-9.7-5.8-19-8-29s-1-.3-1-.3c-.9-1.2,1.2-.9,1.8-1.2,9.2-3.9,21.5-5.7,31.8-7.8,32.3-6.7,71.2-12.1,107.1-10.8Z"/>
        <g>
          <path class="st2" d="M500.1,342.6c.2,0,2.9,2.8,3,3,2.6,4.4-.2,4.8-.9,8.8-1.6-.6-1.9.9-2.7,1.1-5.4.9-6.6-1.4-9.2-5.4.3-5.2,4.3-9,9.8-7.5Z"/>
          <path class="st2" d="M448.1,347.6c.2,0,2.1,2.3,2.2,2.6.1.9-.8,5-1.1,5.2s-1.2-.1-1.6,0-.5.9-.8.9c-8,1.6-7.9-11.4,1.2-8.8Z"/>
          <path class="st2" d="M552,347.6c2,.6,2.5,4.8,2,6.7s-3.4,2.1-3.6,2.2c-1,.2-5-1.5-5.2-2.4-1-4.9,2-7.8,6.8-6.5Z"/>
          <path class="st2" d="M402.2,354.6c.2,0,3,1.8,3.1,2.2,1,4.7-1.1,5.8-4.7,7.6-2.6-2.2-5.1-2.4-4.2-6.6s.7-.3.9-.8-.1-1.4,0-1.6,1.2.1,1.6,0c1.2-.7.5-1.5,3.2-.8Z"/>
          <path class="st2" d="M596,354.6c.2,0,3,1.8,3.1,2.2,1,4.7-1.1,5.8-4.7,7.6-2.6-2.1-5.2-2.5-4.2-6.6s4.6-3.5,5.8-3.2Z"/>
        </g>
      </g>
      <g>
        <path class="st0" d="M731,386.4c.1,0,1.1,1.9,1,2.2v223.9c-3.4,52.9-14.3,98.3-45.2,143.5-46,67.3-119.7,109.2-187.5,149.2-.7.4-1.1,1.8-1.2,1.8-.2.1-4-1.7-4.8-2.2-67.9-37.6-152-93.1-192.8-160.9-20.9-34.7-31.2-69.6-36.2-107.5-2.2-81.9-.3-165.4-1-247.9,0-.3.9-2.2,1-2.2h466.5Z"/>
        <path class="st2" d="M715,404.4v217.1c-2.5,20.4-4.6,40.2-10,59.3-27.4,97.9-120.3,156.5-202.6,204.4s-2.9,3.1-4.4,2.9-5.7-2.8-6.6-3.2c-2.2-1.1-6.2-4.4-8.3-5.7-70.5-40.8-146.7-91.5-181.8-169.9-12.1-27-17.8-53.2-20.8-83.8v-221.1h434.6Z"/>
        <path class="st0" d="M705,414.4v213.1c-3.1,28.8-8.4,53.8-19.8,79.9-32.5,74.2-114.1,128.3-180.8,165.9-.4.2-.9,1.4-1.3,1.7-3.4,1.8-5.1,2.8-8.6,1s-6.2-4.4-8.3-5.7c-38.3-22.1-76.1-45.9-108.5-75.3-52.3-47.4-86.1-105.7-88.1-175.4v-205.1h415.6Z"/>
        <g>
          <g>
            <path class="st2" d="M339.4,444.4c1.4-1.4,1.9,1,2,1h85.9v8h-10c0,0,.2.9-.3,1-3.2.5-5.3.1-8.5,2.2-4.5,2.9-5.1,8.5-7.1,12.2-1.7,62-1.6,126.8,0,188.8,1.7,2.6.9,6.3,4.2,8.5,5,3.4,9.7,2.7,15.5,3.2,24.7,2.3,70.3,6.1,85.1-18.2,2.5-4.1,3.7-9.1,6.1-13.2s0-1.6,0-1.6h9c-.1,1.2.2,2.5,0,3.6-2.2,11.2-5.9,26-7,37s.3,8,0,8.3c-12.1-.2-24.2.3-36.2,0-19.7-.4-41.8,0-61.9-1-22.1-1.1-48-.2-70.4,2-.6,0-7.3.3-7.3,0v-8h7c0,0-.2-.9.3-1,12.1-2.5,18.9-8.5,18.7-21.6,1.6-58.8,1.6-120.7,0-179.6.3-9.3-3-18.3-12.7-20.6s-5.7-1.6-7.7-2-4.6.2-4.6,0c0-1.3-.3-8.7,0-9Z"/>
            <g>
              <path class="st2" d="M578.1,677.2c0,0-.2-.9.3-1,1.1-.2,2.2.2,3.5-.2s6.6-5.5,7-6c1.5-2.5,1.5-8.1,1.2-11.1-.6-5.4-5.9-15.6-8-21.1-4-10.6-8.3-25.4-14-35-.2-.3,0-1.1,0-1.6h-78.5s-22.5,58.8-22.5,58.8c-.7,1.6-5.9,1.3-7.5,1.1s-.2-.9-1.1-1c-2.2-.3-5,.3-7.3,0,0-.9,1.8-2.8,2-3.4,24.1-60.9,47.2-127.2,71-190.2,2.2-5.8,5.8-16.4,8.9-21.7s-.1-1.4,0-1.6c.6-.6,15.9-.3,16.7,0s0,1.9.3,2.6c19.6,50.5,38.6,104.2,57.9,155.9,6.9,18.5,13.9,38.8,21.8,56.5,5.6,12.7,9.5,17.3,22.9,19.8,1.2.2,3-.2,4.3,0v8c-8.7-1.9-18.8-.7-28.3-1-18.4-.6-36.9-.5-55.4,1-.7,0-9.3.4-9.3,0v-9c4.4-.4,9.8.6,14,0Z"/>
              <polygon class="st0" points="494.2 586.3 528.9 493.3 563.1 586.3 494.2 586.3"/>
            </g>
          </g>
          <g>
            <path class="st2" d="M498.2,767.2c.7.1,1.1.8,1.4,1.4,6.7,12.3,12.4,25.1,19.1,37.3-1.5.5-1.1,1.7-1.6,2.9-1.7,3.5-4.8,7.2-6.3,10.8s-2.6,9.1-3,9.4c-1.7,1.2-17.7-.4-20.9-.3-.9-8.3-6.7-15.1-10.5-22.3-.2-.6,0-1.1.1-1.7.7-2.6,4.9-8.2,6.3-10.9,4.2-8.3,7.7-17.8,12.6-25.7s.9.2.9.4v27.7c0,.5-5.9.5-5.5,7.2.4,8.3,12,8.2,13,1s-.5-6.2-3.7-8.1-1.8,0-1.8-.2v-29Z"/>
            <path class="st2" d="M508.2,832.1c.3.3.1,4.4-.9,5s-17.4.8-19,.1-1.6-3.1-1.6-5.1c2.6.6,20.7-.8,21.5,0Z"/>
          </g>
          <g>
            <g>
              <path class="st2" d="M386.3,727.2c0,0,.9.2,1-.3s-.2-1.6,0-2.3c2.3-7.7,9.7-14.6,17.8-17.5,15.4-5.5,31.7,2.4,36.1,18.8s1,.3,1,.3v9c0,.2,4.8.2,5,0s-.2-1.9,0-2.6c1-2.7,8.6-4,9-.2s.4,13.9,0,17.1-8.3,3.5-9,.4.1-3.5,0-3.6-5-.2-5,0v7c0,0-.9-.2-1,.3-2.3,8.6-8,15.5-16.8,18.8s-8.1,3.4-12.5,2.9-10.9-3.5-13.5-5.2-2.4-3-3.3-3.7-1.6,0-1.8-.2.2-1.3-.2-1.8-2.3-1.7-2.7-2.3c-.8-1.2-4.1-8.8-4.2-9.5-.3-1.4.8-5.6-1.1-6.1-5.4-1.5-13.9,2.9-11.8-7.8s2.9-3.2,3.1-3.2c1.6-.4,9.9.3,9.9-.2,0-2.3-.3-6,0-8Z"/>
              <path class="st0" d="M418.1,716.4c.4,0,6.1,2.4,7,3s5.8,7.1,6.1,8.2c2.3,6.5,1.6,22.6-2.1,28.4s-6.5,5.8-6.9,6-3.4,1.2-3.6,1.2c-6.8.8-15.2-1.1-19.1-7.2-8.9-13.9-2.3-43.2,18.7-39.6Z"/>
            </g>
            <path class="st2" d="M612.1,735.2c.3,0,3,3.7,3,4.2.1.8.1,2.7,0,3.4s-2.7,3.4-3,3.4h-16v24c0,.2-2.9,2.8-3.1,2.8-1.3.4-2.5,0-3.5.1s-.2,1.7-1.3,1c-2.2-1.4-1.3-.5-3.6-1s-3.4-2.7-3.4-3v-11h-9v11c0,.2-2.9,2.8-3.1,2.8-.8.4-1.7,0-2.5.2s0,.8-1.5,1c-2.7.4-2.9-1.5-5.4-1.1-.2-1-3.4-2.7-3.4-3v-24h-94.9c-.6-1.3,1-.9,1-1v-10h149.8Z"/>
          </g>
        </g>
      </g>
    </g>
  </g>
  <g id="SM" class="st3">
    <text class="st1" transform="translate(710.1 381.4)"><tspan x="0" y="0">SM</tspan></text>
  </g>
  <g id="TM">
    <g>
      <path class="st0" d="M713.4,371.8h-3.3v-1.2h8v1.2h-3.3v9.6h-1.4v-9.6Z"/>
      <path class="st0" d="M728.4,376.7c0-.4,0-.8,0-1.2s0-.8,0-1.2c0-.4,0-.8,0-1.2,0-.4,0-.7,0-1.1h0c-.2.6-.4,1.3-.6,2-.2.7-.5,1.4-.8,2.1l-1.9,5.2h-1.1l-1.7-5.1c-.3-.8-.5-1.5-.7-2.2-.2-.7-.4-1.4-.5-2h0c0,.7,0,1.4,0,2.3,0,.8,0,1.7-.1,2.5l-.3,4.6h-1.3l.8-10.8h1.8l1.8,5.2c.2.7.4,1.3.6,1.9.2.6.3,1.2.5,1.7h0c.1-.5.3-1.1.5-1.7.2-.6.4-1.2.6-1.9l1.9-5.2h1.8l.7,10.8h-1.4l-.3-4.7Z"/>
    </g>
  </g>
</svg>